<svg width="208" height="40" viewBox="0 0 208 40" fill="none" xmlns="http://www.w3.org/2000/svg">
<rect width="208" height="40" rx="10" fill="#FF6700"/>
<path d="M81.3828 23.8906V26H75.6328V23.8906H81.3828ZM76.6094 14.625V26H73.8672V14.625H76.6094ZM86.5078 26.1562C85.8203 26.1562 85.2057 26.0495 84.6641 25.8359C84.1224 25.6172 83.6641 25.3177 83.2891 24.9375C82.9193 24.5573 82.6354 24.1198 82.4375 23.625C82.2448 23.1302 82.1484 22.6068 82.1484 22.0547V21.7578C82.1484 21.138 82.2344 20.5651 82.4062 20.0391C82.5781 19.5078 82.8333 19.0443 83.1719 18.6484C83.5104 18.2526 83.9349 17.9453 84.4453 17.7266C84.9557 17.5026 85.5495 17.3906 86.2266 17.3906C86.8255 17.3906 87.362 17.487 87.8359 17.6797C88.3099 17.8724 88.7109 18.1484 89.0391 18.5078C89.3724 18.8672 89.625 19.3021 89.7969 19.8125C89.974 20.3229 90.0625 20.8958 90.0625 21.5312V22.6016H83.1562V20.9531H87.4922V20.75C87.4974 20.4688 87.4479 20.2292 87.3438 20.0312C87.2448 19.8333 87.099 19.6823 86.9062 19.5781C86.7135 19.474 86.4792 19.4219 86.2031 19.4219C85.9167 19.4219 85.6797 19.4844 85.4922 19.6094C85.3099 19.7344 85.1667 19.9062 85.0625 20.125C84.9635 20.3385 84.8932 20.5859 84.8516 20.8672C84.8099 21.1484 84.7891 21.4453 84.7891 21.7578V22.0547C84.7891 22.3672 84.8307 22.651 84.9141 22.9062C85.0026 23.1615 85.1276 23.3802 85.2891 23.5625C85.4557 23.7396 85.6536 23.8776 85.8828 23.9766C86.1172 24.0755 86.3828 24.125 86.6797 24.125C87.0391 24.125 87.3932 24.0573 87.7422 23.9219C88.0911 23.7865 88.3906 23.5625 88.6406 23.25L89.8359 24.6719C89.6641 24.9167 89.4193 25.1536 89.1016 25.3828C88.7891 25.612 88.4141 25.7995 87.9766 25.9453C87.5391 26.0859 87.0495 26.1562 86.5078 26.1562ZM95.5859 17.5469V19.375H90.4922V17.5469H95.5859ZM91.5625 15.4453H94.1953V23.2422C94.1953 23.4661 94.2214 23.6406 94.2734 23.7656C94.3255 23.8854 94.4141 23.9714 94.5391 24.0234C94.6693 24.0703 94.8411 24.0938 95.0547 24.0938C95.2057 24.0938 95.3307 24.0911 95.4297 24.0859C95.5286 24.0755 95.6224 24.0625 95.7109 24.0469V25.9297C95.487 26.0026 95.2526 26.0573 95.0078 26.0938C94.763 26.1354 94.5026 26.1562 94.2266 26.1562C93.6641 26.1562 93.1823 26.0677 92.7812 25.8906C92.3854 25.7135 92.0833 25.4349 91.875 25.0547C91.6667 24.6745 91.5625 24.1797 91.5625 23.5703V15.4453ZM99.1797 14V15.2812C99.1797 15.6302 99.1094 15.987 98.9688 16.3516C98.8333 16.7161 98.6562 17.0599 98.4375 17.3828C98.224 17.7005 97.9948 17.9688 97.75 18.1875L96.5938 17.5625C96.7604 17.2656 96.9115 16.9375 97.0469 16.5781C97.1875 16.2135 97.2578 15.7786 97.2578 15.2734V14H99.1797ZM103.328 23.625C103.328 23.4792 103.279 23.3542 103.18 23.25C103.086 23.1406 102.919 23.0417 102.68 22.9531C102.44 22.8594 102.104 22.7656 101.672 22.6719C101.26 22.5833 100.872 22.4661 100.508 22.3203C100.148 22.1745 99.8333 21.9974 99.5625 21.7891C99.2917 21.5807 99.0781 21.3333 98.9219 21.0469C98.7708 20.7604 98.6953 20.4323 98.6953 20.0625C98.6953 19.7031 98.7708 19.3646 98.9219 19.0469C99.0781 18.724 99.3047 18.4401 99.6016 18.1953C99.9036 17.9453 100.271 17.75 100.703 17.6094C101.135 17.4635 101.628 17.3906 102.18 17.3906C102.94 17.3906 103.596 17.5078 104.148 17.7422C104.701 17.9714 105.125 18.2943 105.422 18.7109C105.724 19.1224 105.875 19.599 105.875 20.1406H103.242C103.242 19.9271 103.206 19.7448 103.133 19.5938C103.065 19.4427 102.953 19.3281 102.797 19.25C102.641 19.1667 102.432 19.125 102.172 19.125C101.99 19.125 101.823 19.1589 101.672 19.2266C101.526 19.2943 101.409 19.388 101.32 19.5078C101.232 19.6276 101.188 19.7682 101.188 19.9297C101.188 20.0443 101.214 20.1484 101.266 20.2422C101.323 20.3307 101.409 20.4141 101.523 20.4922C101.638 20.5651 101.784 20.6328 101.961 20.6953C102.138 20.7526 102.352 20.8047 102.602 20.8516C103.169 20.9557 103.701 21.1042 104.195 21.2969C104.69 21.4896 105.091 21.763 105.398 22.1172C105.711 22.4714 105.867 22.9479 105.867 23.5469C105.867 23.9219 105.781 24.2682 105.609 24.5859C105.438 24.8984 105.19 25.1745 104.867 25.4141C104.544 25.6484 104.156 25.8307 103.703 25.9609C103.25 26.0911 102.74 26.1562 102.172 26.1562C101.365 26.1562 100.682 26.013 100.125 25.7266C99.5677 25.4349 99.1458 25.0703 98.8594 24.6328C98.5781 24.1901 98.4375 23.7422 98.4375 23.2891H100.891C100.901 23.5495 100.964 23.763 101.078 23.9297C101.198 24.0964 101.357 24.2188 101.555 24.2969C101.753 24.375 101.982 24.4141 102.242 24.4141C102.482 24.4141 102.68 24.3802 102.836 24.3125C102.997 24.2448 103.12 24.1536 103.203 24.0391C103.286 23.9193 103.328 23.7812 103.328 23.625ZM115.516 23.625C115.516 23.4792 115.466 23.3542 115.367 23.25C115.273 23.1406 115.107 23.0417 114.867 22.9531C114.628 22.8594 114.292 22.7656 113.859 22.6719C113.448 22.5833 113.06 22.4661 112.695 22.3203C112.336 22.1745 112.021 21.9974 111.75 21.7891C111.479 21.5807 111.266 21.3333 111.109 21.0469C110.958 20.7604 110.883 20.4323 110.883 20.0625C110.883 19.7031 110.958 19.3646 111.109 19.0469C111.266 18.724 111.492 18.4401 111.789 18.1953C112.091 17.9453 112.458 17.75 112.891 17.6094C113.323 17.4635 113.815 17.3906 114.367 17.3906C115.128 17.3906 115.784 17.5078 116.336 17.7422C116.888 17.9714 117.312 18.2943 117.609 18.7109C117.911 19.1224 118.062 19.599 118.062 20.1406H115.43C115.43 19.9271 115.393 19.7448 115.32 19.5938C115.253 19.4427 115.141 19.3281 114.984 19.25C114.828 19.1667 114.62 19.125 114.359 19.125C114.177 19.125 114.01 19.1589 113.859 19.2266C113.714 19.2943 113.596 19.388 113.508 19.5078C113.419 19.6276 113.375 19.7682 113.375 19.9297C113.375 20.0443 113.401 20.1484 113.453 20.2422C113.51 20.3307 113.596 20.4141 113.711 20.4922C113.826 20.5651 113.971 20.6328 114.148 20.6953C114.326 20.7526 114.539 20.8047 114.789 20.8516C115.357 20.9557 115.888 21.1042 116.383 21.2969C116.878 21.4896 117.279 21.763 117.586 22.1172C117.898 22.4714 118.055 22.9479 118.055 23.5469C118.055 23.9219 117.969 24.2682 117.797 24.5859C117.625 24.8984 117.378 25.1745 117.055 25.4141C116.732 25.6484 116.344 25.8307 115.891 25.9609C115.438 26.0911 114.927 26.1562 114.359 26.1562C113.552 26.1562 112.87 26.013 112.312 25.7266C111.755 25.4349 111.333 25.0703 111.047 24.6328C110.766 24.1901 110.625 23.7422 110.625 23.2891H113.078C113.089 23.5495 113.151 23.763 113.266 23.9297C113.385 24.0964 113.544 24.2188 113.742 24.2969C113.94 24.375 114.169 24.4141 114.43 24.4141C114.669 24.4141 114.867 24.3802 115.023 24.3125C115.185 24.2448 115.307 24.1536 115.391 24.0391C115.474 23.9193 115.516 23.7812 115.516 23.625ZM123.383 26.1562C122.695 26.1562 122.081 26.0495 121.539 25.8359C120.997 25.6172 120.539 25.3177 120.164 24.9375C119.794 24.5573 119.51 24.1198 119.312 23.625C119.12 23.1302 119.023 22.6068 119.023 22.0547V21.7578C119.023 21.138 119.109 20.5651 119.281 20.0391C119.453 19.5078 119.708 19.0443 120.047 18.6484C120.385 18.2526 120.81 17.9453 121.32 17.7266C121.831 17.5026 122.424 17.3906 123.102 17.3906C123.701 17.3906 124.237 17.487 124.711 17.6797C125.185 17.8724 125.586 18.1484 125.914 18.5078C126.247 18.8672 126.5 19.3021 126.672 19.8125C126.849 20.3229 126.938 20.8958 126.938 21.5312V22.6016H120.031V20.9531H124.367V20.75C124.372 20.4688 124.323 20.2292 124.219 20.0312C124.12 19.8333 123.974 19.6823 123.781 19.5781C123.589 19.474 123.354 19.4219 123.078 19.4219C122.792 19.4219 122.555 19.4844 122.367 19.6094C122.185 19.7344 122.042 19.9062 121.938 20.125C121.839 20.3385 121.768 20.5859 121.727 20.8672C121.685 21.1484 121.664 21.4453 121.664 21.7578V22.0547C121.664 22.3672 121.706 22.651 121.789 22.9062C121.878 23.1615 122.003 23.3802 122.164 23.5625C122.331 23.7396 122.529 23.8776 122.758 23.9766C122.992 24.0755 123.258 24.125 123.555 24.125C123.914 24.125 124.268 24.0573 124.617 23.9219C124.966 23.7865 125.266 23.5625 125.516 23.25L126.711 24.6719C126.539 24.9167 126.294 25.1536 125.977 25.3828C125.664 25.612 125.289 25.7995 124.852 25.9453C124.414 26.0859 123.924 26.1562 123.383 26.1562ZM132.102 26.1562C131.414 26.1562 130.799 26.0495 130.258 25.8359C129.716 25.6172 129.258 25.3177 128.883 24.9375C128.513 24.5573 128.229 24.1198 128.031 23.625C127.839 23.1302 127.742 22.6068 127.742 22.0547V21.7578C127.742 21.138 127.828 20.5651 128 20.0391C128.172 19.5078 128.427 19.0443 128.766 18.6484C129.104 18.2526 129.529 17.9453 130.039 17.7266C130.549 17.5026 131.143 17.3906 131.82 17.3906C132.419 17.3906 132.956 17.487 133.43 17.6797C133.904 17.8724 134.305 18.1484 134.633 18.5078C134.966 18.8672 135.219 19.3021 135.391 19.8125C135.568 20.3229 135.656 20.8958 135.656 21.5312V22.6016H128.75V20.9531H133.086V20.75C133.091 20.4688 133.042 20.2292 132.938 20.0312C132.839 19.8333 132.693 19.6823 132.5 19.5781C132.307 19.474 132.073 19.4219 131.797 19.4219C131.51 19.4219 131.273 19.4844 131.086 19.6094C130.904 19.7344 130.76 19.9062 130.656 20.125C130.557 20.3385 130.487 20.5859 130.445 20.8672C130.404 21.1484 130.383 21.4453 130.383 21.7578V22.0547C130.383 22.3672 130.424 22.651 130.508 22.9062C130.596 23.1615 130.721 23.3802 130.883 23.5625C131.049 23.7396 131.247 23.8776 131.477 23.9766C131.711 24.0755 131.977 24.125 132.273 24.125C132.633 24.125 132.987 24.0573 133.336 23.9219C133.685 23.7865 133.984 23.5625 134.234 23.25L135.43 24.6719C135.258 24.9167 135.013 25.1536 134.695 25.3828C134.383 25.612 134.008 25.7995 133.57 25.9453C133.133 26.0859 132.643 26.1562 132.102 26.1562Z" fill="white"/>
</svg>
