<svg width="308" height="24" viewBox="0 0 308 24" fill="none" xmlns="http://www.w3.org/2000/svg">
<path d="M42.5859 14.3281V15.125H34.5312V14.5859L39.7891 6.625H40.5703L39.4609 8.55469L35.6719 14.3281H42.5859ZM40.8125 6.625V18H39.8828V6.625H40.8125ZM52.6172 6.625L47.8672 18.9766H47.0234L51.7734 6.625H52.6172ZM65.2422 17.1953V18H58.125V17.2734L61.8516 13.0469C62.3151 12.5208 62.6849 12.0599 62.9609 11.6641C63.237 11.263 63.4349 10.8984 63.5547 10.5703C63.6797 10.237 63.7422 9.91406 63.7422 9.60156C63.7422 9.14323 63.651 8.73958 63.4688 8.39062C63.2917 8.04167 63.026 7.76823 62.6719 7.57031C62.3177 7.3724 61.8802 7.27344 61.3594 7.27344C60.8385 7.27344 60.3854 7.38542 60 7.60938C59.6146 7.83333 59.3177 8.14583 59.1094 8.54688C58.9062 8.94271 58.8047 9.39323 58.8047 9.89844H57.875C57.875 9.27344 58.013 8.70052 58.2891 8.17969C58.5703 7.65885 58.9714 7.24479 59.4922 6.9375C60.013 6.625 60.6354 6.46875 61.3594 6.46875C62.0469 6.46875 62.638 6.59115 63.1328 6.83594C63.6276 7.07552 64.0078 7.42188 64.2734 7.875C64.5443 8.32812 64.6797 8.875 64.6797 9.51562C64.6797 9.85938 64.6172 10.2057 64.4922 10.5547C64.3724 10.9036 64.2057 11.2526 63.9922 11.6016C63.7839 11.9453 63.5443 12.2865 63.2734 12.625C63.0078 12.9635 62.7292 13.2969 62.4375 13.625L59.2656 17.1953H65.2422ZM73.8516 11.3359V13.25C73.8516 14.0833 73.7734 14.8099 73.6172 15.4297C73.4609 16.0443 73.2318 16.5547 72.9297 16.9609C72.6328 17.362 72.2682 17.6615 71.8359 17.8594C71.4089 18.0573 70.9193 18.1562 70.3672 18.1562C69.9297 18.1562 69.5286 18.0938 69.1641 17.9688C68.7995 17.8438 68.474 17.6536 68.1875 17.3984C67.9062 17.138 67.6667 16.8125 67.4688 16.4219C67.2708 16.0312 67.1198 15.5729 67.0156 15.0469C66.9115 14.5156 66.8594 13.9167 66.8594 13.25V11.3359C66.8594 10.4974 66.9375 9.77344 67.0938 9.16406C67.2552 8.55469 67.4844 8.04948 67.7812 7.64844C68.0833 7.2474 68.4505 6.95052 68.8828 6.75781C69.3151 6.5599 69.8047 6.46094 70.3516 6.46094C70.7891 6.46094 71.1901 6.52604 71.5547 6.65625C71.9245 6.78125 72.25 6.96875 72.5312 7.21875C72.8177 7.46875 73.0573 7.78906 73.25 8.17969C73.4479 8.5651 73.5964 9.02083 73.6953 9.54688C73.7995 10.0729 73.8516 10.6693 73.8516 11.3359ZM72.9219 13.3594V11.2188C72.9219 10.7031 72.8854 10.2344 72.8125 9.8125C72.7448 9.39062 72.6432 9.02083 72.5078 8.70312C72.3724 8.38542 72.2005 8.11979 71.9922 7.90625C71.7891 7.69271 71.5495 7.53385 71.2734 7.42969C71.0026 7.32031 70.6953 7.26562 70.3516 7.26562C69.9297 7.26562 69.5573 7.35156 69.2344 7.52344C68.9167 7.6901 68.651 7.9401 68.4375 8.27344C68.224 8.60156 68.0625 9.01302 67.9531 9.50781C67.849 10.0026 67.7969 10.5729 67.7969 11.2188V13.3594C67.7969 13.8698 67.8307 14.3359 67.8984 14.7578C67.9661 15.1745 68.0703 15.5443 68.2109 15.8672C68.3516 16.1901 68.5234 16.4635 68.7266 16.6875C68.9349 16.9062 69.1745 17.0729 69.4453 17.1875C69.7214 17.2969 70.0286 17.3516 70.3672 17.3516C70.7995 17.3516 71.1745 17.2656 71.4922 17.0938C71.8099 16.9167 72.0755 16.6589 72.2891 16.3203C72.5026 15.9766 72.6615 15.5573 72.7656 15.0625C72.8698 14.5625 72.9219 13.9948 72.9219 13.3594Z" fill="#FF6700"/>
<path d="M7.47998 18.35L10.58 20.75C10.98 21.15 11.88 21.35 12.48 21.35H16.28C17.48 21.35 18.78 20.45 19.08 19.25L21.48 11.95C21.98 10.55 21.08 9.34997 19.58 9.34997H15.58C14.98 9.34997 14.48 8.84997 14.58 8.14997L15.08 4.94997C15.28 4.04997 14.68 3.04997 13.78 2.74997C12.98 2.44997 11.98 2.84997 11.58 3.44997L7.47998 9.54997" stroke="#FF6700" stroke-width="1.5" stroke-miterlimit="10"/>
<path d="M2.37988 18.35V8.55002C2.37988 7.15002 2.97988 6.65002 4.37988 6.65002H5.37988C6.77988 6.65002 7.37988 7.15002 7.37988 8.55002V18.35C7.37988 19.75 6.77988 20.25 5.37988 20.25H4.37988C2.97988 20.25 2.37988 19.75 2.37988 18.35Z" stroke="#FF6700" stroke-width="1.5" stroke-linecap="round" stroke-linejoin="round"/>
<path d="M240.52 5.65002L237.42 3.25002C237.02 2.85002 236.12 2.65002 235.52 2.65002H231.72C230.52 2.65002 229.22 3.55002 228.92 4.75002L226.52 12.05C226.02 13.45 226.92 14.65 228.42 14.65H232.42C233.02 14.65 233.52 15.15 233.42 15.85L232.92 19.05C232.72 19.95 233.32 20.95 234.22 21.25C235.02 21.55 236.02 21.15 236.42 20.55L240.52 14.45" stroke="#FF6700" stroke-width="1.5" stroke-miterlimit="10"/>
<path d="M245.62 5.65V15.45C245.62 16.85 245.02 17.35 243.62 17.35H242.62C241.22 17.35 240.62 16.85 240.62 15.45V5.65C240.62 4.25 241.22 3.75 242.62 3.75H243.62C245.02 3.75 245.62 4.25 245.62 5.65Z" stroke="#FF6700" stroke-width="1.5" stroke-linecap="round" stroke-linejoin="round"/>
<path d="M263.422 5.57812V17H262.492V6.75781L259.398 7.90625V7.02344L263.266 5.57812H263.422ZM273.328 5.53906H273.461V6.35938H273.328C272.609 6.35938 271.969 6.47656 271.406 6.71094C270.849 6.94531 270.378 7.28385 269.992 7.72656C269.612 8.16406 269.323 8.69531 269.125 9.32031C268.927 9.94531 268.828 10.6458 268.828 11.4219V12.9922C268.828 13.5182 268.898 13.9896 269.039 14.4062C269.18 14.8177 269.375 15.1693 269.625 15.4609C269.875 15.7526 270.167 15.974 270.5 16.125C270.833 16.276 271.193 16.3516 271.578 16.3516C271.958 16.3516 272.299 16.2734 272.602 16.1172C272.904 15.9609 273.159 15.7422 273.367 15.4609C273.581 15.1797 273.742 14.8568 273.852 14.4922C273.966 14.1224 274.023 13.7266 274.023 13.3047C274.023 12.9036 273.971 12.526 273.867 12.1719C273.768 11.8125 273.615 11.4948 273.406 11.2188C273.198 10.9427 272.938 10.7266 272.625 10.5703C272.312 10.4141 271.945 10.3359 271.523 10.3359C271.044 10.3359 270.596 10.4453 270.18 10.6641C269.763 10.8828 269.422 11.1745 269.156 11.5391C268.896 11.9036 268.758 12.3021 268.742 12.7344L268.203 12.7266C268.24 12.237 268.352 11.7969 268.539 11.4062C268.727 11.0104 268.974 10.6745 269.281 10.3984C269.594 10.1172 269.951 9.90365 270.352 9.75781C270.758 9.60677 271.195 9.53125 271.664 9.53125C272.211 9.53125 272.688 9.63021 273.094 9.82812C273.505 10.026 273.846 10.2995 274.117 10.6484C274.393 10.9922 274.599 11.3906 274.734 11.8438C274.875 12.2917 274.945 12.7656 274.945 13.2656C274.945 13.8125 274.867 14.3229 274.711 14.7969C274.56 15.2656 274.336 15.6771 274.039 16.0312C273.747 16.3854 273.393 16.6615 272.977 16.8594C272.565 17.0573 272.099 17.1562 271.578 17.1562C271.005 17.1562 270.492 17.0469 270.039 16.8281C269.586 16.6094 269.198 16.3073 268.875 15.9219C268.557 15.5365 268.312 15.0938 268.141 14.5938C267.974 14.0885 267.891 13.5495 267.891 12.9766V11.9766C267.891 11.0078 268.003 10.1302 268.227 9.34375C268.451 8.55208 268.786 7.8724 269.234 7.30469C269.688 6.73698 270.253 6.30208 270.93 6C271.612 5.69271 272.411 5.53906 273.328 5.53906ZM285.492 5.625L280.742 17.9766H279.898L284.648 5.625H285.492ZM298.117 16.1953V17H291V16.2734L294.727 12.0469C295.19 11.5208 295.56 11.0599 295.836 10.6641C296.112 10.263 296.31 9.89844 296.43 9.57031C296.555 9.23698 296.617 8.91406 296.617 8.60156C296.617 8.14323 296.526 7.73958 296.344 7.39062C296.167 7.04167 295.901 6.76823 295.547 6.57031C295.193 6.3724 294.755 6.27344 294.234 6.27344C293.714 6.27344 293.26 6.38542 292.875 6.60938C292.49 6.83333 292.193 7.14583 291.984 7.54688C291.781 7.94271 291.68 8.39323 291.68 8.89844H290.75C290.75 8.27344 290.888 7.70052 291.164 7.17969C291.445 6.65885 291.846 6.24479 292.367 5.9375C292.888 5.625 293.51 5.46875 294.234 5.46875C294.922 5.46875 295.513 5.59115 296.008 5.83594C296.503 6.07552 296.883 6.42188 297.148 6.875C297.419 7.32812 297.555 7.875 297.555 8.51562C297.555 8.85938 297.492 9.20573 297.367 9.55469C297.247 9.90365 297.081 10.2526 296.867 10.6016C296.659 10.9453 296.419 11.2865 296.148 11.625C295.883 11.9635 295.604 12.2969 295.312 12.625L292.141 16.1953H298.117ZM306.727 10.3359V12.25C306.727 13.0833 306.648 13.8099 306.492 14.4297C306.336 15.0443 306.107 15.5547 305.805 15.9609C305.508 16.362 305.143 16.6615 304.711 16.8594C304.284 17.0573 303.794 17.1562 303.242 17.1562C302.805 17.1562 302.404 17.0938 302.039 16.9688C301.674 16.8438 301.349 16.6536 301.062 16.3984C300.781 16.138 300.542 15.8125 300.344 15.4219C300.146 15.0312 299.995 14.5729 299.891 14.0469C299.786 13.5156 299.734 12.9167 299.734 12.25V10.3359C299.734 9.4974 299.812 8.77344 299.969 8.16406C300.13 7.55469 300.359 7.04948 300.656 6.64844C300.958 6.2474 301.326 5.95052 301.758 5.75781C302.19 5.5599 302.68 5.46094 303.227 5.46094C303.664 5.46094 304.065 5.52604 304.43 5.65625C304.799 5.78125 305.125 5.96875 305.406 6.21875C305.693 6.46875 305.932 6.78906 306.125 7.17969C306.323 7.5651 306.471 8.02083 306.57 8.54688C306.674 9.07292 306.727 9.66927 306.727 10.3359ZM305.797 12.3594V10.2188C305.797 9.70312 305.76 9.23438 305.688 8.8125C305.62 8.39062 305.518 8.02083 305.383 7.70312C305.247 7.38542 305.076 7.11979 304.867 6.90625C304.664 6.69271 304.424 6.53385 304.148 6.42969C303.878 6.32031 303.57 6.26562 303.227 6.26562C302.805 6.26562 302.432 6.35156 302.109 6.52344C301.792 6.6901 301.526 6.9401 301.312 7.27344C301.099 7.60156 300.938 8.01302 300.828 8.50781C300.724 9.0026 300.672 9.57292 300.672 10.2188V12.3594C300.672 12.8698 300.706 13.3359 300.773 13.7578C300.841 14.1745 300.945 14.5443 301.086 14.8672C301.227 15.1901 301.398 15.4635 301.602 15.6875C301.81 15.9062 302.049 16.0729 302.32 16.1875C302.596 16.2969 302.904 16.3516 303.242 16.3516C303.674 16.3516 304.049 16.2656 304.367 16.0938C304.685 15.9167 304.951 15.6589 305.164 15.3203C305.378 14.9766 305.536 14.5573 305.641 14.0625C305.745 13.5625 305.797 12.9948 305.797 12.3594Z" fill="#FF6700"/>
</svg>
