<svg width="324" height="60" viewBox="0 0 324 60" fill="none" xmlns="http://www.w3.org/2000/svg">
<rect width="324" height="60" rx="10" fill="#FF6700"/>
<path d="M127.574 34.8359V38H118.949V34.8359H127.574ZM120.414 20.9375V38H116.301V20.9375H120.414ZM135.262 38.2344C134.23 38.2344 133.309 38.0742 132.496 37.7539C131.684 37.4258 130.996 36.9766 130.434 36.4062C129.879 35.8359 129.453 35.1797 129.156 34.4375C128.867 33.6953 128.723 32.9102 128.723 32.082V31.6367C128.723 30.707 128.852 29.8477 129.109 29.0586C129.367 28.2617 129.75 27.5664 130.258 26.9727C130.766 26.3789 131.402 25.918 132.168 25.5898C132.934 25.2539 133.824 25.0859 134.84 25.0859C135.738 25.0859 136.543 25.2305 137.254 25.5195C137.965 25.8086 138.566 26.2227 139.059 26.7617C139.559 27.3008 139.938 27.9531 140.195 28.7188C140.461 29.4844 140.594 30.3438 140.594 31.2969V32.9023H130.234V30.4297H136.738V30.125C136.746 29.7031 136.672 29.3438 136.516 29.0469C136.367 28.75 136.148 28.5234 135.859 28.3672C135.57 28.2109 135.219 28.1328 134.805 28.1328C134.375 28.1328 134.02 28.2266 133.738 28.4141C133.465 28.6016 133.25 28.8594 133.094 29.1875C132.945 29.5078 132.84 29.8789 132.777 30.3008C132.715 30.7227 132.684 31.168 132.684 31.6367V32.082C132.684 32.5508 132.746 32.9766 132.871 33.3594C133.004 33.7422 133.191 34.0703 133.434 34.3438C133.684 34.6094 133.98 34.8164 134.324 34.9648C134.676 35.1133 135.074 35.1875 135.52 35.1875C136.059 35.1875 136.59 35.0859 137.113 34.8828C137.637 34.6797 138.086 34.3438 138.461 33.875L140.254 36.0078C139.996 36.375 139.629 36.7305 139.152 37.0742C138.684 37.418 138.121 37.6992 137.465 37.918C136.809 38.1289 136.074 38.2344 135.262 38.2344ZM148.879 25.3203V28.0625H141.238V25.3203H148.879ZM142.844 22.168H146.793V33.8633C146.793 34.1992 146.832 34.4609 146.91 34.6484C146.988 34.8281 147.121 34.957 147.309 35.0352C147.504 35.1055 147.762 35.1406 148.082 35.1406C148.309 35.1406 148.496 35.1367 148.645 35.1289C148.793 35.1133 148.934 35.0938 149.066 35.0703V37.8945C148.73 38.0039 148.379 38.0859 148.012 38.1406C147.645 38.2031 147.254 38.2344 146.84 38.2344C145.996 38.2344 145.273 38.1016 144.672 37.8359C144.078 37.5703 143.625 37.1523 143.312 36.582C143 36.0117 142.844 35.2695 142.844 34.3555V22.168ZM154.27 20V21.9219C154.27 22.4453 154.164 22.9805 153.953 23.5273C153.75 24.0742 153.484 24.5898 153.156 25.0742C152.836 25.5508 152.492 25.9531 152.125 26.2812L150.391 25.3438C150.641 24.8984 150.867 24.4062 151.07 23.8672C151.281 23.3203 151.387 22.668 151.387 21.9102V20H154.27ZM160.492 34.4375C160.492 34.2188 160.418 34.0312 160.27 33.875C160.129 33.7109 159.879 33.5625 159.52 33.4297C159.16 33.2891 158.656 33.1484 158.008 33.0078C157.391 32.875 156.809 32.6992 156.262 32.4805C155.723 32.2617 155.25 31.9961 154.844 31.6836C154.438 31.3711 154.117 31 153.883 30.5703C153.656 30.1406 153.543 29.6484 153.543 29.0938C153.543 28.5547 153.656 28.0469 153.883 27.5703C154.117 27.0859 154.457 26.6602 154.902 26.293C155.355 25.918 155.906 25.625 156.555 25.4141C157.203 25.1953 157.941 25.0859 158.77 25.0859C159.91 25.0859 160.895 25.2617 161.723 25.6133C162.551 25.957 163.188 26.4414 163.633 27.0664C164.086 27.6836 164.312 28.3984 164.312 29.2109H160.363C160.363 28.8906 160.309 28.6172 160.199 28.3906C160.098 28.1641 159.93 27.9922 159.695 27.875C159.461 27.75 159.148 27.6875 158.758 27.6875C158.484 27.6875 158.234 27.7383 158.008 27.8398C157.789 27.9414 157.613 28.082 157.48 28.2617C157.348 28.4414 157.281 28.6523 157.281 28.8945C157.281 29.0664 157.32 29.2227 157.398 29.3633C157.484 29.4961 157.613 29.6211 157.785 29.7383C157.957 29.8477 158.176 29.9492 158.441 30.043C158.707 30.1289 159.027 30.207 159.402 30.2773C160.254 30.4336 161.051 30.6562 161.793 30.9453C162.535 31.2344 163.137 31.6445 163.598 32.1758C164.066 32.707 164.301 33.4219 164.301 34.3203C164.301 34.8828 164.172 35.4023 163.914 35.8789C163.656 36.3477 163.285 36.7617 162.801 37.1211C162.316 37.4727 161.734 37.7461 161.055 37.9414C160.375 38.1367 159.609 38.2344 158.758 38.2344C157.547 38.2344 156.523 38.0195 155.688 37.5898C154.852 37.1523 154.219 36.6055 153.789 35.9492C153.367 35.2852 153.156 34.6133 153.156 33.9336H156.836C156.852 34.3242 156.945 34.6445 157.117 34.8945C157.297 35.1445 157.535 35.3281 157.832 35.4453C158.129 35.5625 158.473 35.6211 158.863 35.6211C159.223 35.6211 159.52 35.5703 159.754 35.4688C159.996 35.3672 160.18 35.2305 160.305 35.0586C160.43 34.8789 160.492 34.6719 160.492 34.4375ZM178.773 34.4375C178.773 34.2188 178.699 34.0312 178.551 33.875C178.41 33.7109 178.16 33.5625 177.801 33.4297C177.441 33.2891 176.938 33.1484 176.289 33.0078C175.672 32.875 175.09 32.6992 174.543 32.4805C174.004 32.2617 173.531 31.9961 173.125 31.6836C172.719 31.3711 172.398 31 172.164 30.5703C171.938 30.1406 171.824 29.6484 171.824 29.0938C171.824 28.5547 171.938 28.0469 172.164 27.5703C172.398 27.0859 172.738 26.6602 173.184 26.293C173.637 25.918 174.188 25.625 174.836 25.4141C175.484 25.1953 176.223 25.0859 177.051 25.0859C178.191 25.0859 179.176 25.2617 180.004 25.6133C180.832 25.957 181.469 26.4414 181.914 27.0664C182.367 27.6836 182.594 28.3984 182.594 29.2109H178.645C178.645 28.8906 178.59 28.6172 178.48 28.3906C178.379 28.1641 178.211 27.9922 177.977 27.875C177.742 27.75 177.43 27.6875 177.039 27.6875C176.766 27.6875 176.516 27.7383 176.289 27.8398C176.07 27.9414 175.895 28.082 175.762 28.2617C175.629 28.4414 175.562 28.6523 175.562 28.8945C175.562 29.0664 175.602 29.2227 175.68 29.3633C175.766 29.4961 175.895 29.6211 176.066 29.7383C176.238 29.8477 176.457 29.9492 176.723 30.043C176.988 30.1289 177.309 30.207 177.684 30.2773C178.535 30.4336 179.332 30.6562 180.074 30.9453C180.816 31.2344 181.418 31.6445 181.879 32.1758C182.348 32.707 182.582 33.4219 182.582 34.3203C182.582 34.8828 182.453 35.4023 182.195 35.8789C181.938 36.3477 181.566 36.7617 181.082 37.1211C180.598 37.4727 180.016 37.7461 179.336 37.9414C178.656 38.1367 177.891 38.2344 177.039 38.2344C175.828 38.2344 174.805 38.0195 173.969 37.5898C173.133 37.1523 172.5 36.6055 172.07 35.9492C171.648 35.2852 171.438 34.6133 171.438 33.9336H175.117C175.133 34.3242 175.227 34.6445 175.398 34.8945C175.578 35.1445 175.816 35.3281 176.113 35.4453C176.41 35.5625 176.754 35.6211 177.145 35.6211C177.504 35.6211 177.801 35.5703 178.035 35.4688C178.277 35.3672 178.461 35.2305 178.586 35.0586C178.711 34.8789 178.773 34.6719 178.773 34.4375ZM190.574 38.2344C189.543 38.2344 188.621 38.0742 187.809 37.7539C186.996 37.4258 186.309 36.9766 185.746 36.4062C185.191 35.8359 184.766 35.1797 184.469 34.4375C184.18 33.6953 184.035 32.9102 184.035 32.082V31.6367C184.035 30.707 184.164 29.8477 184.422 29.0586C184.68 28.2617 185.062 27.5664 185.57 26.9727C186.078 26.3789 186.715 25.918 187.48 25.5898C188.246 25.2539 189.137 25.0859 190.152 25.0859C191.051 25.0859 191.855 25.2305 192.566 25.5195C193.277 25.8086 193.879 26.2227 194.371 26.7617C194.871 27.3008 195.25 27.9531 195.508 28.7188C195.773 29.4844 195.906 30.3438 195.906 31.2969V32.9023H185.547V30.4297H192.051V30.125C192.059 29.7031 191.984 29.3438 191.828 29.0469C191.68 28.75 191.461 28.5234 191.172 28.3672C190.883 28.2109 190.531 28.1328 190.117 28.1328C189.688 28.1328 189.332 28.2266 189.051 28.4141C188.777 28.6016 188.562 28.8594 188.406 29.1875C188.258 29.5078 188.152 29.8789 188.09 30.3008C188.027 30.7227 187.996 31.168 187.996 31.6367V32.082C187.996 32.5508 188.059 32.9766 188.184 33.3594C188.316 33.7422 188.504 34.0703 188.746 34.3438C188.996 34.6094 189.293 34.8164 189.637 34.9648C189.988 35.1133 190.387 35.1875 190.832 35.1875C191.371 35.1875 191.902 35.0859 192.426 34.8828C192.949 34.6797 193.398 34.3438 193.773 33.875L195.566 36.0078C195.309 36.375 194.941 36.7305 194.465 37.0742C193.996 37.418 193.434 37.6992 192.777 37.918C192.121 38.1289 191.387 38.2344 190.574 38.2344ZM203.652 38.2344C202.621 38.2344 201.699 38.0742 200.887 37.7539C200.074 37.4258 199.387 36.9766 198.824 36.4062C198.27 35.8359 197.844 35.1797 197.547 34.4375C197.258 33.6953 197.113 32.9102 197.113 32.082V31.6367C197.113 30.707 197.242 29.8477 197.5 29.0586C197.758 28.2617 198.141 27.5664 198.648 26.9727C199.156 26.3789 199.793 25.918 200.559 25.5898C201.324 25.2539 202.215 25.0859 203.23 25.0859C204.129 25.0859 204.934 25.2305 205.645 25.5195C206.355 25.8086 206.957 26.2227 207.449 26.7617C207.949 27.3008 208.328 27.9531 208.586 28.7188C208.852 29.4844 208.984 30.3438 208.984 31.2969V32.9023H198.625V30.4297H205.129V30.125C205.137 29.7031 205.062 29.3438 204.906 29.0469C204.758 28.75 204.539 28.5234 204.25 28.3672C203.961 28.2109 203.609 28.1328 203.195 28.1328C202.766 28.1328 202.41 28.2266 202.129 28.4141C201.855 28.6016 201.641 28.8594 201.484 29.1875C201.336 29.5078 201.23 29.8789 201.168 30.3008C201.105 30.7227 201.074 31.168 201.074 31.6367V32.082C201.074 32.5508 201.137 32.9766 201.262 33.3594C201.395 33.7422 201.582 34.0703 201.824 34.3438C202.074 34.6094 202.371 34.8164 202.715 34.9648C203.066 35.1133 203.465 35.1875 203.91 35.1875C204.449 35.1875 204.98 35.0859 205.504 34.8828C206.027 34.6797 206.477 34.3438 206.852 33.875L208.645 36.0078C208.387 36.375 208.02 36.7305 207.543 37.0742C207.074 37.418 206.512 37.6992 205.855 37.918C205.199 38.1289 204.465 38.2344 203.652 38.2344Z" fill="white"/>
</svg>
