<svg width="250" height="50" viewBox="0 0 250 50" fill="none" xmlns="http://www.w3.org/2000/svg">
<rect width="250" height="50" rx="10" fill="#FF6700"/>
<path d="M96.4785 29.3633V32H89.291V29.3633H96.4785ZM90.5117 17.7812V32H87.084V17.7812H90.5117ZM102.885 32.1953C102.025 32.1953 101.257 32.0618 100.58 31.7949C99.903 31.5215 99.3301 31.1471 98.8613 30.6719C98.3991 30.1966 98.0443 29.6497 97.7969 29.0312C97.556 28.4128 97.4355 27.7585 97.4355 27.0684V26.6973C97.4355 25.9225 97.543 25.2064 97.7578 24.5488C97.9727 23.8848 98.2917 23.3053 98.7148 22.8105C99.138 22.3158 99.6686 21.9316 100.307 21.6582C100.945 21.3783 101.687 21.2383 102.533 21.2383C103.282 21.2383 103.952 21.3587 104.545 21.5996C105.137 21.8405 105.639 22.1855 106.049 22.6348C106.465 23.084 106.781 23.6276 106.996 24.2656C107.217 24.9036 107.328 25.6198 107.328 26.4141V27.752H98.6953V25.6914H104.115V25.4375C104.122 25.0859 104.06 24.7865 103.93 24.5391C103.806 24.2917 103.624 24.1029 103.383 23.9727C103.142 23.8424 102.849 23.7773 102.504 23.7773C102.146 23.7773 101.85 23.8555 101.615 24.0117C101.387 24.168 101.208 24.3828 101.078 24.6562C100.954 24.9232 100.867 25.2324 100.814 25.584C100.762 25.9355 100.736 26.3066 100.736 26.6973V27.0684C100.736 27.459 100.788 27.8138 100.893 28.1328C101.003 28.4518 101.16 28.7253 101.361 28.9531C101.57 29.1745 101.817 29.347 102.104 29.4707C102.396 29.5944 102.729 29.6562 103.1 29.6562C103.549 29.6562 103.992 29.5716 104.428 29.4023C104.864 29.2331 105.238 28.9531 105.551 28.5625L107.045 30.3398C106.83 30.6458 106.524 30.9421 106.127 31.2285C105.736 31.515 105.268 31.7493 104.721 31.9316C104.174 32.1074 103.562 32.1953 102.885 32.1953ZM114.232 21.4336V23.7188H107.865V21.4336H114.232ZM109.203 18.8066H112.494V28.5527C112.494 28.8327 112.527 29.0508 112.592 29.207C112.657 29.3568 112.768 29.4642 112.924 29.5293C113.087 29.5879 113.301 29.6172 113.568 29.6172C113.757 29.6172 113.913 29.6139 114.037 29.6074C114.161 29.5944 114.278 29.5781 114.389 29.5586V31.9121C114.109 32.0033 113.816 32.0716 113.51 32.1172C113.204 32.1693 112.878 32.1953 112.533 32.1953C111.83 32.1953 111.228 32.0846 110.727 31.8633C110.232 31.6419 109.854 31.2936 109.594 30.8184C109.333 30.3431 109.203 29.7246 109.203 28.9629V18.8066ZM118.725 17V18.6016C118.725 19.0378 118.637 19.4837 118.461 19.9395C118.292 20.3952 118.07 20.8249 117.797 21.2285C117.53 21.6257 117.243 21.9609 116.938 22.2344L115.492 21.4531C115.701 21.082 115.889 20.6719 116.059 20.2227C116.234 19.7669 116.322 19.2233 116.322 18.5918V17H118.725ZM123.91 29.0312C123.91 28.849 123.848 28.6927 123.725 28.5625C123.607 28.4258 123.399 28.3021 123.1 28.1914C122.8 28.0742 122.38 27.957 121.84 27.8398C121.326 27.7292 120.84 27.5827 120.385 27.4004C119.936 27.2181 119.542 26.9967 119.203 26.7363C118.865 26.4759 118.598 26.1667 118.402 25.8086C118.214 25.4505 118.119 25.0404 118.119 24.5781C118.119 24.1289 118.214 23.7057 118.402 23.3086C118.598 22.9049 118.881 22.5501 119.252 22.2441C119.63 21.9316 120.089 21.6875 120.629 21.5117C121.169 21.3294 121.785 21.2383 122.475 21.2383C123.425 21.2383 124.245 21.3848 124.936 21.6777C125.626 21.9642 126.156 22.3678 126.527 22.8887C126.905 23.403 127.094 23.9987 127.094 24.6758H123.803C123.803 24.4089 123.757 24.181 123.666 23.9922C123.581 23.8034 123.441 23.6602 123.246 23.5625C123.051 23.4583 122.79 23.4062 122.465 23.4062C122.237 23.4062 122.029 23.4486 121.84 23.5332C121.658 23.6178 121.511 23.735 121.4 23.8848C121.29 24.0345 121.234 24.2103 121.234 24.4121C121.234 24.5553 121.267 24.6855 121.332 24.8027C121.404 24.9134 121.511 25.0176 121.654 25.1152C121.798 25.2064 121.98 25.291 122.201 25.3691C122.423 25.4408 122.689 25.5059 123.002 25.5645C123.712 25.6947 124.376 25.8802 124.994 26.1211C125.613 26.362 126.114 26.7038 126.498 27.1465C126.889 27.5892 127.084 28.1849 127.084 28.9336C127.084 29.4023 126.977 29.8353 126.762 30.2324C126.547 30.623 126.238 30.9681 125.834 31.2676C125.43 31.5605 124.945 31.7884 124.379 31.9512C123.812 32.1139 123.174 32.1953 122.465 32.1953C121.456 32.1953 120.603 32.0163 119.906 31.6582C119.21 31.2936 118.682 30.8379 118.324 30.291C117.973 29.7376 117.797 29.1777 117.797 28.6113H120.863C120.876 28.9368 120.954 29.2038 121.098 29.4121C121.247 29.6204 121.446 29.7734 121.693 29.8711C121.941 29.9688 122.227 30.0176 122.553 30.0176C122.852 30.0176 123.1 29.9753 123.295 29.8906C123.497 29.806 123.65 29.6921 123.754 29.5488C123.858 29.3991 123.91 29.2266 123.91 29.0312ZM139.145 29.0312C139.145 28.849 139.083 28.6927 138.959 28.5625C138.842 28.4258 138.633 28.3021 138.334 28.1914C138.035 28.0742 137.615 27.957 137.074 27.8398C136.56 27.7292 136.075 27.5827 135.619 27.4004C135.17 27.2181 134.776 26.9967 134.438 26.7363C134.099 26.4759 133.832 26.1667 133.637 25.8086C133.448 25.4505 133.354 25.0404 133.354 24.5781C133.354 24.1289 133.448 23.7057 133.637 23.3086C133.832 22.9049 134.115 22.5501 134.486 22.2441C134.864 21.9316 135.323 21.6875 135.863 21.5117C136.404 21.3294 137.019 21.2383 137.709 21.2383C138.66 21.2383 139.48 21.3848 140.17 21.6777C140.86 21.9642 141.391 22.3678 141.762 22.8887C142.139 23.403 142.328 23.9987 142.328 24.6758H139.037C139.037 24.4089 138.992 24.181 138.9 23.9922C138.816 23.8034 138.676 23.6602 138.48 23.5625C138.285 23.4583 138.025 23.4062 137.699 23.4062C137.471 23.4062 137.263 23.4486 137.074 23.5332C136.892 23.6178 136.745 23.735 136.635 23.8848C136.524 24.0345 136.469 24.2103 136.469 24.4121C136.469 24.5553 136.501 24.6855 136.566 24.8027C136.638 24.9134 136.745 25.0176 136.889 25.1152C137.032 25.2064 137.214 25.291 137.436 25.3691C137.657 25.4408 137.924 25.5059 138.236 25.5645C138.946 25.6947 139.61 25.8802 140.229 26.1211C140.847 26.362 141.348 26.7038 141.732 27.1465C142.123 27.5892 142.318 28.1849 142.318 28.9336C142.318 29.4023 142.211 29.8353 141.996 30.2324C141.781 30.623 141.472 30.9681 141.068 31.2676C140.665 31.5605 140.18 31.7884 139.613 31.9512C139.047 32.1139 138.409 32.1953 137.699 32.1953C136.69 32.1953 135.837 32.0163 135.141 31.6582C134.444 31.2936 133.917 30.8379 133.559 30.291C133.207 29.7376 133.031 29.1777 133.031 28.6113H136.098C136.111 28.9368 136.189 29.2038 136.332 29.4121C136.482 29.6204 136.68 29.7734 136.928 29.8711C137.175 29.9688 137.462 30.0176 137.787 30.0176C138.087 30.0176 138.334 29.9753 138.529 29.8906C138.731 29.806 138.884 29.6921 138.988 29.5488C139.092 29.3991 139.145 29.2266 139.145 29.0312ZM148.979 32.1953C148.119 32.1953 147.351 32.0618 146.674 31.7949C145.997 31.5215 145.424 31.1471 144.955 30.6719C144.493 30.1966 144.138 29.6497 143.891 29.0312C143.65 28.4128 143.529 27.7585 143.529 27.0684V26.6973C143.529 25.9225 143.637 25.2064 143.852 24.5488C144.066 23.8848 144.385 23.3053 144.809 22.8105C145.232 22.3158 145.762 21.9316 146.4 21.6582C147.038 21.3783 147.781 21.2383 148.627 21.2383C149.376 21.2383 150.046 21.3587 150.639 21.5996C151.231 21.8405 151.732 22.1855 152.143 22.6348C152.559 23.084 152.875 23.6276 153.09 24.2656C153.311 24.9036 153.422 25.6198 153.422 26.4141V27.752H144.789V25.6914H150.209V25.4375C150.215 25.0859 150.154 24.7865 150.023 24.5391C149.9 24.2917 149.717 24.1029 149.477 23.9727C149.236 23.8424 148.943 23.7773 148.598 23.7773C148.24 23.7773 147.943 23.8555 147.709 24.0117C147.481 24.168 147.302 24.3828 147.172 24.6562C147.048 24.9232 146.96 25.2324 146.908 25.584C146.856 25.9355 146.83 26.3066 146.83 26.6973V27.0684C146.83 27.459 146.882 27.8138 146.986 28.1328C147.097 28.4518 147.253 28.7253 147.455 28.9531C147.663 29.1745 147.911 29.347 148.197 29.4707C148.49 29.5944 148.822 29.6562 149.193 29.6562C149.643 29.6562 150.085 29.5716 150.521 29.4023C150.958 29.2331 151.332 28.9531 151.645 28.5625L153.139 30.3398C152.924 30.6458 152.618 30.9421 152.221 31.2285C151.83 31.515 151.361 31.7493 150.814 31.9316C150.268 32.1074 149.656 32.1953 148.979 32.1953ZM159.877 32.1953C159.018 32.1953 158.249 32.0618 157.572 31.7949C156.895 31.5215 156.322 31.1471 155.854 30.6719C155.391 30.1966 155.036 29.6497 154.789 29.0312C154.548 28.4128 154.428 27.7585 154.428 27.0684V26.6973C154.428 25.9225 154.535 25.2064 154.75 24.5488C154.965 23.8848 155.284 23.3053 155.707 22.8105C156.13 22.3158 156.661 21.9316 157.299 21.6582C157.937 21.3783 158.679 21.2383 159.525 21.2383C160.274 21.2383 160.945 21.3587 161.537 21.5996C162.13 21.8405 162.631 22.1855 163.041 22.6348C163.458 23.084 163.773 23.6276 163.988 24.2656C164.21 24.9036 164.32 25.6198 164.32 26.4141V27.752H155.688V25.6914H161.107V25.4375C161.114 25.0859 161.052 24.7865 160.922 24.5391C160.798 24.2917 160.616 24.1029 160.375 23.9727C160.134 23.8424 159.841 23.7773 159.496 23.7773C159.138 23.7773 158.842 23.8555 158.607 24.0117C158.38 24.168 158.201 24.3828 158.07 24.6562C157.947 24.9232 157.859 25.2324 157.807 25.584C157.755 25.9355 157.729 26.3066 157.729 26.6973V27.0684C157.729 27.459 157.781 27.8138 157.885 28.1328C157.995 28.4518 158.152 28.7253 158.354 28.9531C158.562 29.1745 158.809 29.347 159.096 29.4707C159.389 29.5944 159.721 29.6562 160.092 29.6562C160.541 29.6562 160.984 29.5716 161.42 29.4023C161.856 29.2331 162.23 28.9531 162.543 28.5625L164.037 30.3398C163.822 30.6458 163.516 30.9421 163.119 31.2285C162.729 31.515 162.26 31.7493 161.713 31.9316C161.166 32.1074 160.554 32.1953 159.877 32.1953Z" fill="white"/>
</svg>
