<svg width="334" height="24" viewBox="0 0 334 24" fill="none" xmlns="http://www.w3.org/2000/svg">
<path d="M42.5859 14.3281V15.125H34.5312V14.5859L39.7891 6.625H40.5703L39.4609 8.55469L35.6719 14.3281H42.5859ZM40.8125 6.625V18H39.8828V6.625H40.8125ZM52.6172 6.625L47.8672 18.9766H47.0234L51.7734 6.625H52.6172ZM65.2422 17.1953V18H58.125V17.2734L61.8516 13.0469C62.3151 12.5208 62.6849 12.0599 62.9609 11.6641C63.237 11.263 63.4349 10.8984 63.5547 10.5703C63.6797 10.237 63.7422 9.91406 63.7422 9.60156C63.7422 9.14323 63.651 8.73958 63.4688 8.39062C63.2917 8.04167 63.026 7.76823 62.6719 7.57031C62.3177 7.3724 61.8802 7.27344 61.3594 7.27344C60.8385 7.27344 60.3854 7.38542 60 7.60938C59.6146 7.83333 59.3177 8.14583 59.1094 8.54688C58.9062 8.94271 58.8047 9.39323 58.8047 9.89844H57.875C57.875 9.27344 58.013 8.70052 58.2891 8.17969C58.5703 7.65885 58.9714 7.24479 59.4922 6.9375C60.013 6.625 60.6354 6.46875 61.3594 6.46875C62.0469 6.46875 62.638 6.59115 63.1328 6.83594C63.6276 7.07552 64.0078 7.42188 64.2734 7.875C64.5443 8.32812 64.6797 8.875 64.6797 9.51562C64.6797 9.85938 64.6172 10.2057 64.4922 10.5547C64.3724 10.9036 64.2057 11.2526 63.9922 11.6016C63.7839 11.9453 63.5443 12.2865 63.2734 12.625C63.0078 12.9635 62.7292 13.2969 62.4375 13.625L59.2656 17.1953H65.2422ZM73.8516 11.3359V13.25C73.8516 14.0833 73.7734 14.8099 73.6172 15.4297C73.4609 16.0443 73.2318 16.5547 72.9297 16.9609C72.6328 17.362 72.2682 17.6615 71.8359 17.8594C71.4089 18.0573 70.9193 18.1562 70.3672 18.1562C69.9297 18.1562 69.5286 18.0938 69.1641 17.9688C68.7995 17.8438 68.474 17.6536 68.1875 17.3984C67.9062 17.138 67.6667 16.8125 67.4688 16.4219C67.2708 16.0312 67.1198 15.5729 67.0156 15.0469C66.9115 14.5156 66.8594 13.9167 66.8594 13.25V11.3359C66.8594 10.4974 66.9375 9.77344 67.0938 9.16406C67.2552 8.55469 67.4844 8.04948 67.7812 7.64844C68.0833 7.2474 68.4505 6.95052 68.8828 6.75781C69.3151 6.5599 69.8047 6.46094 70.3516 6.46094C70.7891 6.46094 71.1901 6.52604 71.5547 6.65625C71.9245 6.78125 72.25 6.96875 72.5312 7.21875C72.8177 7.46875 73.0573 7.78906 73.25 8.17969C73.4479 8.5651 73.5964 9.02083 73.6953 9.54688C73.7995 10.0729 73.8516 10.6693 73.8516 11.3359ZM72.9219 13.3594V11.2188C72.9219 10.7031 72.8854 10.2344 72.8125 9.8125C72.7448 9.39062 72.6432 9.02083 72.5078 8.70312C72.3724 8.38542 72.2005 8.11979 71.9922 7.90625C71.7891 7.69271 71.5495 7.53385 71.2734 7.42969C71.0026 7.32031 70.6953 7.26562 70.3516 7.26562C69.9297 7.26562 69.5573 7.35156 69.2344 7.52344C68.9167 7.6901 68.651 7.9401 68.4375 8.27344C68.224 8.60156 68.0625 9.01302 67.9531 9.50781C67.849 10.0026 67.7969 10.5729 67.7969 11.2188V13.3594C67.7969 13.8698 67.8307 14.3359 67.8984 14.7578C67.9661 15.1745 68.0703 15.5443 68.2109 15.8672C68.3516 16.1901 68.5234 16.4635 68.7266 16.6875C68.9349 16.9062 69.1745 17.0729 69.4453 17.1875C69.7214 17.2969 70.0286 17.3516 70.3672 17.3516C70.7995 17.3516 71.1745 17.2656 71.4922 17.0938C71.8099 16.9167 72.0755 16.6589 72.2891 16.3203C72.5026 15.9766 72.6615 15.5573 72.7656 15.0625C72.8698 14.5625 72.9219 13.9948 72.9219 13.3594Z" fill="#FF6700"/>
<path d="M7.47998 18.35L10.58 20.75C10.98 21.15 11.88 21.35 12.48 21.35H16.28C17.48 21.35 18.78 20.45 19.08 19.25L21.48 11.95C21.98 10.55 21.08 9.35003 19.58 9.35003H15.58C14.98 9.35003 14.48 8.85003 14.58 8.15003L15.08 4.95003C15.28 4.05003 14.68 3.05003 13.78 2.75003C12.98 2.45003 11.98 2.85003 11.58 3.45003L7.47998 9.55003" stroke="#FF6700" stroke-width="1.5" stroke-miterlimit="10"/>
<path d="M2.37988 18.35V8.55002C2.37988 7.15002 2.97988 6.65002 4.37988 6.65002H5.37988C6.77988 6.65002 7.37988 7.15002 7.37988 8.55002V18.35C7.37988 19.75 6.77988 20.25 5.37988 20.25H4.37988C2.97988 20.25 2.37988 19.75 2.37988 18.35Z" stroke="#FF6700" stroke-width="1.5" stroke-linecap="round" stroke-linejoin="round"/>
<path d="M266.52 5.65002L263.42 3.25002C263.02 2.85002 262.12 2.65002 261.52 2.65002H257.72C256.52 2.65002 255.22 3.55002 254.92 4.75002L252.52 12.05C252.02 13.45 252.92 14.65 254.42 14.65H258.42C259.02 14.65 259.52 15.15 259.42 15.85L258.92 19.05C258.72 19.95 259.32 20.95 260.22 21.25C261.02 21.55 262.02 21.15 262.42 20.55L266.52 14.45" stroke="#FF6700" stroke-width="1.5" stroke-miterlimit="10"/>
<path d="M271.62 5.65V15.45C271.62 16.85 271.02 17.35 269.62 17.35H268.62C267.22 17.35 266.62 16.85 266.62 15.45V5.65C266.62 4.25 267.22 3.75 268.62 3.75H269.62C271.02 3.75 271.62 4.25 271.62 5.65Z" stroke="#FF6700" stroke-width="1.5" stroke-linecap="round" stroke-linejoin="round"/>
<path d="M289.422 5.57812V17H288.492V6.75781L285.398 7.90625V7.02344L289.266 5.57812H289.422ZM299.328 5.53906H299.461V6.35938H299.328C298.609 6.35938 297.969 6.47656 297.406 6.71094C296.849 6.94531 296.378 7.28385 295.992 7.72656C295.612 8.16406 295.323 8.69531 295.125 9.32031C294.927 9.94531 294.828 10.6458 294.828 11.4219V12.9922C294.828 13.5182 294.898 13.9896 295.039 14.4062C295.18 14.8177 295.375 15.1693 295.625 15.4609C295.875 15.7526 296.167 15.974 296.5 16.125C296.833 16.276 297.193 16.3516 297.578 16.3516C297.958 16.3516 298.299 16.2734 298.602 16.1172C298.904 15.9609 299.159 15.7422 299.367 15.4609C299.581 15.1797 299.742 14.8568 299.852 14.4922C299.966 14.1224 300.023 13.7266 300.023 13.3047C300.023 12.9036 299.971 12.526 299.867 12.1719C299.768 11.8125 299.615 11.4948 299.406 11.2188C299.198 10.9427 298.938 10.7266 298.625 10.5703C298.312 10.4141 297.945 10.3359 297.523 10.3359C297.044 10.3359 296.596 10.4453 296.18 10.6641C295.763 10.8828 295.422 11.1745 295.156 11.5391C294.896 11.9036 294.758 12.3021 294.742 12.7344L294.203 12.7266C294.24 12.237 294.352 11.7969 294.539 11.4062C294.727 11.0104 294.974 10.6745 295.281 10.3984C295.594 10.1172 295.951 9.90365 296.352 9.75781C296.758 9.60677 297.195 9.53125 297.664 9.53125C298.211 9.53125 298.688 9.63021 299.094 9.82812C299.505 10.026 299.846 10.2995 300.117 10.6484C300.393 10.9922 300.599 11.3906 300.734 11.8438C300.875 12.2917 300.945 12.7656 300.945 13.2656C300.945 13.8125 300.867 14.3229 300.711 14.7969C300.56 15.2656 300.336 15.6771 300.039 16.0312C299.747 16.3854 299.393 16.6615 298.977 16.8594C298.565 17.0573 298.099 17.1562 297.578 17.1562C297.005 17.1562 296.492 17.0469 296.039 16.8281C295.586 16.6094 295.198 16.3073 294.875 15.9219C294.557 15.5365 294.312 15.0938 294.141 14.5938C293.974 14.0885 293.891 13.5495 293.891 12.9766V11.9766C293.891 11.0078 294.003 10.1302 294.227 9.34375C294.451 8.55208 294.786 7.8724 295.234 7.30469C295.688 6.73698 296.253 6.30208 296.93 6C297.612 5.69271 298.411 5.53906 299.328 5.53906ZM311.492 5.625L306.742 17.9766H305.898L310.648 5.625H311.492ZM324.117 16.1953V17H317V16.2734L320.727 12.0469C321.19 11.5208 321.56 11.0599 321.836 10.6641C322.112 10.263 322.31 9.89844 322.43 9.57031C322.555 9.23698 322.617 8.91406 322.617 8.60156C322.617 8.14323 322.526 7.73958 322.344 7.39062C322.167 7.04167 321.901 6.76823 321.547 6.57031C321.193 6.3724 320.755 6.27344 320.234 6.27344C319.714 6.27344 319.26 6.38542 318.875 6.60938C318.49 6.83333 318.193 7.14583 317.984 7.54688C317.781 7.94271 317.68 8.39323 317.68 8.89844H316.75C316.75 8.27344 316.888 7.70052 317.164 7.17969C317.445 6.65885 317.846 6.24479 318.367 5.9375C318.888 5.625 319.51 5.46875 320.234 5.46875C320.922 5.46875 321.513 5.59115 322.008 5.83594C322.503 6.07552 322.883 6.42188 323.148 6.875C323.419 7.32812 323.555 7.875 323.555 8.51562C323.555 8.85938 323.492 9.20573 323.367 9.55469C323.247 9.90365 323.081 10.2526 322.867 10.6016C322.659 10.9453 322.419 11.2865 322.148 11.625C321.883 11.9635 321.604 12.2969 321.312 12.625L318.141 16.1953H324.117ZM332.727 10.3359V12.25C332.727 13.0833 332.648 13.8099 332.492 14.4297C332.336 15.0443 332.107 15.5547 331.805 15.9609C331.508 16.362 331.143 16.6615 330.711 16.8594C330.284 17.0573 329.794 17.1562 329.242 17.1562C328.805 17.1562 328.404 17.0938 328.039 16.9688C327.674 16.8438 327.349 16.6536 327.062 16.3984C326.781 16.138 326.542 15.8125 326.344 15.4219C326.146 15.0312 325.995 14.5729 325.891 14.0469C325.786 13.5156 325.734 12.9167 325.734 12.25V10.3359C325.734 9.4974 325.812 8.77344 325.969 8.16406C326.13 7.55469 326.359 7.04948 326.656 6.64844C326.958 6.2474 327.326 5.95052 327.758 5.75781C328.19 5.5599 328.68 5.46094 329.227 5.46094C329.664 5.46094 330.065 5.52604 330.43 5.65625C330.799 5.78125 331.125 5.96875 331.406 6.21875C331.693 6.46875 331.932 6.78906 332.125 7.17969C332.323 7.5651 332.471 8.02083 332.57 8.54688C332.674 9.07292 332.727 9.66927 332.727 10.3359ZM331.797 12.3594V10.2188C331.797 9.70312 331.76 9.23438 331.688 8.8125C331.62 8.39062 331.518 8.02083 331.383 7.70312C331.247 7.38542 331.076 7.11979 330.867 6.90625C330.664 6.69271 330.424 6.53385 330.148 6.42969C329.878 6.32031 329.57 6.26562 329.227 6.26562C328.805 6.26562 328.432 6.35156 328.109 6.52344C327.792 6.6901 327.526 6.9401 327.312 7.27344C327.099 7.60156 326.938 8.01302 326.828 8.50781C326.724 9.0026 326.672 9.57292 326.672 10.2188V12.3594C326.672 12.8698 326.706 13.3359 326.773 13.7578C326.841 14.1745 326.945 14.5443 327.086 14.8672C327.227 15.1901 327.398 15.4635 327.602 15.6875C327.81 15.9062 328.049 16.0729 328.32 16.1875C328.596 16.2969 328.904 16.3516 329.242 16.3516C329.674 16.3516 330.049 16.2656 330.367 16.0938C330.685 15.9167 330.951 15.6589 331.164 15.3203C331.378 14.9766 331.536 14.5573 331.641 14.0625C331.745 13.5625 331.797 12.9948 331.797 12.3594Z" fill="#FF6700"/>
</svg>
